<?xml version="1.0" standalone="no"?>
<!DOCTYPE svg PUBLIC "-//W3C//DTD SVG 20010904//EN"
 "http://www.w3.org/TR/2001/REC-SVG-20010904/DTD/svg10.dtd">
<svg version="1.0" xmlns="http://www.w3.org/2000/svg"
 width="704.000000pt" height="704.000000pt" viewBox="0 0 704.000000 704.000000"
 preserveAspectRatio="xMidYMid meet">
<metadata>
Created by potrace 1.14, written by Peter Selinger 2001-2017
</metadata>
<g transform="translate(0.000000,704.000000) scale(0.100000,-0.100000)"
fill="#000000" stroke="none">
<path d="M3360 6969 c-85 -38 -164 -73 -175 -78 -52 -25 -176 -81 -179 -81 -4
0 -85 -37 -234 -106 -40 -19 -75 -34 -77 -34 -2 0 -36 -15 -77 -34 -74 -34
-149 -68 -158 -71 -12 -4 -59 -25 -110 -48 -30 -14 -120 -54 -200 -90 -80 -36
-172 -77 -205 -92 -33 -15 -100 -45 -150 -67 -49 -22 -122 -56 -162 -74 -40
-19 -75 -34 -77 -34 -3 0 -43 -18 -90 -40 -47 -22 -109 -49 -138 -61 -29 -12
-58 -27 -65 -33 -6 -6 -30 -60 -53 -121 -78 -207 -431 -1130 -440 -1150 -5
-11 -20 -49 -34 -85 -13 -36 -68 -178 -120 -316 -53 -138 -96 -256 -96 -262 0
-7 -4 -12 -10 -12 -5 0 -9 -3 -8 -7 3 -11 -7 -38 -67 -193 -29 -74 -67 -172
-84 -217 l-31 -81 29 -79 c29 -77 239 -626 266 -693 7 -19 27 -71 44 -115 17
-44 60 -156 97 -250 36 -93 67 -174 68 -180 2 -10 69 -188 91 -240 7 -16 22
-55 33 -85 11 -30 37 -98 57 -150 65 -169 86 -224 117 -305 16 -44 34 -89 39
-100 4 -11 27 -69 49 -130 23 -60 47 -115 53 -121 7 -6 41 -23 77 -39 69 -30
134 -59 227 -101 32 -14 119 -53 193 -86 74 -33 168 -75 208 -94 41 -19 75
-34 77 -34 2 0 39 -16 82 -36 43 -20 116 -53 163 -74 47 -21 110 -49 140 -63
30 -13 224 -100 430 -192 206 -92 404 -181 440 -198 36 -16 100 -45 143 -63
l78 -34 42 19 c23 10 105 47 182 81 77 34 158 71 180 81 140 64 492 221 500
223 6 1 21 8 35 16 14 8 27 15 30 15 37 9 60 19 60 26 0 5 4 9 10 9 8 0 137
56 335 145 33 15 78 35 100 45 22 9 63 28 90 40 28 12 68 30 90 40 22 10 75
34 118 54 44 20 80 36 82 36 2 0 43 18 90 40 47 22 88 40 89 40 2 0 34 14 72
32 38 17 71 33 74 33 3 1 22 9 42 18 42 19 42 20 113 208 39 104 149 392 170
444 5 11 9 22 10 25 4 11 17 46 25 67 5 12 52 136 106 275 129 340 164 429
174 453 5 11 16 43 26 70 10 28 22 56 27 63 5 6 7 12 3 12 -3 0 6 26 20 58 14
31 27 62 28 67 2 6 6 19 11 30 4 11 24 65 45 120 43 112 123 319 135 350 4 11
9 25 11 30 1 6 18 52 38 103 l37 93 -64 167 c-35 92 -68 176 -72 187 -5 11 -9
22 -10 25 -1 3 -5 14 -10 25 -8 20 -29 76 -115 300 -23 61 -55 144 -71 185
-70 183 -121 315 -174 455 -31 83 -80 209 -107 280 -28 72 -67 175 -89 230
-21 55 -79 208 -129 340 -51 132 -97 245 -103 251 -7 6 -41 23 -77 39 -36 15
-87 38 -115 51 -76 34 -135 61 -445 199 -157 70 -310 138 -340 152 -30 14
-140 63 -245 110 -104 47 -210 94 -235 105 -25 11 -65 29 -90 40 -25 11 -70
31 -100 45 -30 14 -114 52 -187 84 -73 32 -140 62 -150 67 -26 13 -101 47
-153 70 -25 10 -61 27 -82 36 -20 9 -38 16 -40 15 -1 0 -73 -32 -158 -70z
m216 -130 c27 -12 74 -33 104 -46 30 -14 114 -51 185 -83 137 -61 189 -84 350
-157 55 -25 118 -53 140 -63 150 -66 439 -196 485 -217 30 -14 199 -89 375
-168 176 -78 347 -154 380 -169 l60 -27 74 -192 c62 -164 91 -239 136 -352 4
-11 9 -24 11 -30 1 -5 21 -57 44 -115 23 -58 45 -116 50 -130 5 -14 34 -90 65
-170 31 -80 57 -149 59 -155 1 -5 8 -21 16 -35 7 -14 13 -26 12 -28 -1 -1 5
-18 13 -38 8 -20 15 -39 15 -41 0 -4 200 -529 295 -773 18 -47 48 -123 66
-170 18 -47 32 -93 31 -103 -1 -15 -65 -191 -92 -252 -11 -26 -214 -556 -250
-655 -15 -41 -67 -176 -114 -300 -48 -124 -88 -229 -89 -235 -1 -5 -4 -12 -7
-15 -3 -3 -11 -21 -17 -40 -6 -19 -54 -145 -106 -280 -128 -332 -151 -394
-152 -400 0 -3 -6 -14 -11 -25 -6 -11 -19 -43 -29 -72 l-18 -52 -96 -42 c-53
-23 -123 -54 -156 -69 -69 -32 -96 -44 -300 -135 -82 -36 -172 -77 -200 -90
-27 -12 -151 -68 -275 -123 -369 -164 -661 -295 -780 -349 -167 -76 -322 -143
-331 -143 -10 0 -39 12 -168 71 -35 16 -87 39 -115 51 -28 12 -71 32 -95 45
-24 13 -47 23 -52 23 -4 0 -42 16 -86 36 -43 20 -91 42 -108 49 -16 7 -65 29
-108 49 -43 20 -80 36 -83 36 -2 0 -37 15 -77 34 -96 45 -208 96 -212 96 -2 0
-43 18 -92 41 -48 22 -106 49 -128 58 -22 10 -62 29 -90 41 -27 12 -68 31 -90
40 -22 10 -66 29 -97 44 -32 14 -82 36 -110 49 -408 179 -423 187 -440 231
-10 22 -46 118 -82 211 -35 94 -99 260 -141 370 -43 110 -88 227 -100 260 -13
33 -41 107 -63 165 -22 58 -68 177 -102 265 -34 88 -63 165 -64 170 -2 6 -9
24 -15 40 -7 17 -22 55 -33 85 -11 30 -26 69 -33 85 -7 17 -41 104 -75 195
-35 91 -71 185 -80 210 -10 25 -33 87 -53 139 l-36 94 19 46 c49 121 90 230
90 243 0 8 4 18 9 24 5 5 32 72 61 149 29 77 58 154 65 170 8 17 30 75 51 130
20 55 50 134 66 175 16 41 38 98 48 125 18 49 99 260 115 300 4 11 16 40 25
65 39 106 243 638 254 665 8 17 31 76 52 131 35 93 41 103 74 118 20 9 42 16
48 16 7 0 12 5 12 10 0 6 6 10 13 10 7 0 35 11 63 24 71 33 88 41 414 187 342
152 568 253 625 279 22 10 126 56 230 103 105 46 216 96 248 111 159 73 213
96 227 101 3 1 39 17 80 36 41 19 86 40 100 46 35 16 41 16 96 -8z"/>
<path d="M2899 3738 c0 -337 -3 -626 -5 -643 -8 -46 -42 -117 -72 -148 -50
-53 -98 -71 -189 -71 -71 0 -90 4 -140 30 -67 34 -112 91 -120 152 l-6 42 -48
1 c-153 4 -150 5 -144 -38 14 -109 39 -165 107 -235 46 -48 143 -102 203 -112
17 -3 41 -8 55 -11 49 -11 176 -5 233 10 54 14 126 46 151 66 48 40 70 64 99
111 41 64 43 70 67 188 4 25 8 319 7 655 l-2 610 -97 3 -98 3 -1 -613z"/>
<path d="M3494 3541 c1 -445 4 -812 7 -816 7 -6 179 -9 185 -2 3 2 6 145 7
318 l2 314 193 0 c106 0 197 -2 201 -5 4 -3 28 -43 53 -90 62 -118 146 -274
185 -345 18 -33 48 -90 67 -127 l35 -66 78 -4 c43 -2 95 -2 116 0 l38 3 -47
87 c-26 48 -55 101 -64 117 -9 17 -32 57 -50 90 -18 33 -43 78 -55 100 -12 22
-38 69 -58 105 -19 36 -46 86 -61 112 -14 26 -26 50 -26 55 0 4 20 16 44 26
114 47 206 166 238 307 14 63 16 196 4 253 -45 204 -180 327 -401 367 -27 5
-194 9 -371 10 l-320 0 0 -809z m706 610 c136 -41 205 -147 203 -311 -1 -84
-32 -166 -81 -217 -68 -70 -157 -89 -427 -88 l-200 0 -2 310 c-2 171 -1 315 1
320 2 6 83 10 219 9 190 -1 223 -4 287 -23z"/>
</g>
</svg>
