<svg width="301" height="275" viewBox="0 0 301 275" fill="none" xmlns="http://www.w3.org/2000/svg">
<path d="M215.534 3.6246C236.77 10.0435 254.467 28.7655 270.04 50.5185C285.613 72.0933 299.416 96.8776 300.478 122.197C301.363 147.694 289.86 173.548 275.349 197.441C260.838 221.155 243.495 242.909 221.197 256.46C198.899 270.011 171.647 275.538 145.102 274.29C118.557 272.864 92.8967 264.662 69.0062 252.002C44.9388 239.521 22.818 222.404 11.8461 199.937C0.874234 177.293 1.05121 149.477 0.697276 121.484C0.343344 93.3115 -0.718457 64.9612 10.6074 43.3864C22.1102 21.6333 46.1776 6.83406 70.422 2.19816C94.8433 -2.43774 119.619 2.91138 144.394 2.91138C169.346 2.73307 194.121 -2.97265 215.534 3.6246Z" fill="#CD2368"/>
</svg>
